# xmcd CD database file
#
# Track frame offsets:
#	150
#	16207
#	26594
#	40026
#	53819
#	67069
#	81422
#	97537
#	111491
#	125151
#	138153
#	152573
#	166250
#	180814
#	193936
#	209938
#
# Disc length: 2983 seconds
#
# Revision: 0
# Processed by: cddbd v1.5.1PL0 Copyright (c) Steve Scherf et al.
# Submitted via: CDex 1.51
#
DISCID=d90ba510
DTITLE=Los Caminantes - En Acción CD A/C
DYEAR=2004
DGENRE=Ranchero
TTITLE0=Dos Cartas and Una Flor
TTITLE1=Y Lagrimas Bebí
TTITLE2=Una Noche
TTITLE3=Es Imposible Olvidarte
TTITLE4=La Barca de Guaymas
TTITLE5=Dime Si Me Quieres
TTITLE6=Pa Que Nos Sirve La Vida
TTITLE7=Ya No Te Vayas
TTITLE8=Por Un Juramento
TTITLE9=Otra Ocupa Tu Lugar
TTITLE10=Fue Ayer
TTITLE11=Cerca del Mar
TTITLE12=Te Diste Cuenta
TTITLE13=La Quise Tanto
TTITLE14=Si Ya Lo Pensaste
TTITLE15=Sufre Tu Dolor
EXTD=YEAR: 2004
EXTT0=
EXTT1=
EXTT2=
EXTT3=
EXTT4=
EXTT5=
EXTT6=
EXTT7=
EXTT8=
EXTT9=
EXTT10=
EXTT11=
EXTT12=
EXTT13=
EXTT14=
EXTT15=
PLAYORDER=
